<?xml version="1.0" encoding="iso-8859-1"?>
<!-- Generator: Adobe Illustrator 19.0.0, SVG Export Plug-In . SVG Version: 6.00 Build 0)  -->
<svg version="1.1" id="Layer_1" xmlns="http://www.w3.org/2000/svg" xmlns:xlink="http://www.w3.org/1999/xlink" x="0px" y="0px"
	 viewBox="0 0 512 512" style="enable-background:new 0 0 512 512;" xml:space="preserve">
<path style="fill:#96E17D;" d="M483.556,436.148c0-13.092,8.844-24.117,20.883-27.429c4.331-1.191,7.561-4.772,7.561-9.263V112.543
	c0-4.492-3.231-8.071-7.561-9.263c-12.039-3.31-20.883-14.336-20.883-27.428s8.844-24.117,20.883-27.429
	c4.331-1.191,7.561-4.772,7.561-9.263V28.444C512,12.735,499.265,0,483.556,0H28.444C12.735,0,0,12.735,0,28.444v10.716
	c0,4.492,3.231,8.071,7.561,9.263c12.039,3.31,20.883,14.336,20.883,27.428s-8.844,24.117-20.883,27.429
	C3.231,104.472,0,108.051,0,112.543v286.913c0,4.492,3.231,8.071,7.561,9.263c12.039,3.311,20.883,14.337,20.883,27.429
	c0,13.092-8.844,24.117-20.883,27.429C3.231,464.768,0,468.347,0,472.839v10.716C0,499.265,12.735,512,28.444,512h455.111
	c15.71,0,28.444-12.735,28.444-28.444v-10.716c0-4.492-3.231-8.071-7.561-9.263C492.399,460.265,483.556,449.24,483.556,436.148z"/>
<rect x="246.519" y="47.407" style="fill:#E4EAF6;" width="18.963" height="37.926"/>
<path style="fill:#959CB3;" d="M274.963,123.259h-37.926V85.333c0-5.236,4.245-9.481,9.481-9.481h18.963
	c5.236,0,9.481,4.245,9.481,9.481V123.259z"/>
<circle style="fill:#5B5D6E;" cx="256" cy="42.667" r="14.222"/>
<rect x="303.407" y="47.407" style="fill:#E4EAF6;" width="18.963" height="37.926"/>
<path style="fill:#959CB3;" d="M331.852,123.259h-37.926V85.333c0-5.236,4.245-9.481,9.481-9.481h18.963
	c5.236,0,9.482,4.245,9.482,9.481V123.259z"/>
<circle style="fill:#5B5D6E;" cx="312.889" cy="42.667" r="14.222"/>
<rect x="360.296" y="47.407" style="fill:#E4EAF6;" width="18.963" height="37.926"/>
<path style="fill:#959CB3;" d="M388.741,123.259h-37.926V85.333c0-5.236,4.245-9.481,9.481-9.481h18.963
	c5.236,0,9.481,4.245,9.481,9.481V123.259z"/>
<circle style="fill:#5B5D6E;" cx="369.778" cy="42.667" r="14.222"/>
<rect x="132.741" y="47.407" style="fill:#E4EAF6;" width="18.963" height="37.926"/>
<path style="fill:#959CB3;" d="M161.185,123.259h-37.926V85.333c0-5.236,4.245-9.481,9.481-9.481h18.963
	c5.236,0,9.481,4.245,9.481,9.481V123.259z"/>
<circle style="fill:#5B5D6E;" cx="142.222" cy="42.667" r="14.222"/>
<rect x="189.63" y="47.407" style="fill:#E4EAF6;" width="18.963" height="37.926"/>
<path style="fill:#959CB3;" d="M218.074,123.259h-37.926V85.333c0-5.236,4.245-9.481,9.481-9.481h18.963
	c5.236,0,9.481,4.245,9.481,9.481V123.259z"/>
<circle style="fill:#5B5D6E;" cx="199.111" cy="42.667" r="14.222"/>
<rect x="246.519" y="426.667" style="fill:#E4EAF6;" width="18.963" height="37.926"/>
<path style="fill:#959CB3;" d="M237.037,388.741h37.926v37.926c0,5.236-4.245,9.482-9.481,9.482h-18.963
	c-5.236,0-9.481-4.245-9.481-9.482V388.741z"/>
<circle style="fill:#5B5D6E;" cx="256" cy="469.333" r="14.222"/>
<rect x="189.63" y="426.667" style="fill:#E4EAF6;" width="18.963" height="37.926"/>
<path style="fill:#959CB3;" d="M180.148,388.741h37.926v37.926c0,5.236-4.245,9.482-9.481,9.482H189.63
	c-5.236,0-9.481-4.245-9.481-9.482V388.741z"/>
<circle style="fill:#5B5D6E;" cx="199.111" cy="469.333" r="14.222"/>
<rect x="132.741" y="426.667" style="fill:#E4EAF6;" width="18.963" height="37.926"/>
<path style="fill:#959CB3;" d="M123.259,388.741h37.926v37.926c0,5.236-4.245,9.482-9.481,9.482h-18.963
	c-5.236,0-9.481-4.245-9.481-9.482V388.741z"/>
<circle style="fill:#5B5D6E;" cx="142.222" cy="469.333" r="14.222"/>
<rect x="360.296" y="426.667" style="fill:#E4EAF6;" width="18.963" height="37.926"/>
<path style="fill:#959CB3;" d="M350.815,388.741h37.926v37.926c0,5.236-4.245,9.482-9.481,9.482h-18.963
	c-5.236,0-9.481-4.245-9.481-9.482V388.741z"/>
<circle style="fill:#5B5D6E;" cx="369.778" cy="469.333" r="14.222"/>
<rect x="303.407" y="426.667" style="fill:#E4EAF6;" width="18.963" height="37.926"/>
<path style="fill:#959CB3;" d="M293.926,388.741h37.926v37.926c0,5.236-4.245,9.482-9.482,9.482h-18.963
	c-5.236,0-9.481-4.245-9.481-9.482V388.741z"/>
<circle style="fill:#5B5D6E;" cx="312.889" cy="469.333" r="14.222"/>
<rect x="47.407" y="246.519" style="fill:#E4EAF6;" width="37.926" height="18.963"/>
<path style="fill:#959CB3;" d="M123.259,237.037v37.926H85.333c-5.236,0-9.481-4.245-9.481-9.481v-18.963
	c0-5.236,4.245-9.481,9.481-9.481H123.259z"/>
<circle style="fill:#5B5D6E;" cx="42.667" cy="256" r="14.222"/>
<rect x="47.407" y="189.63" style="fill:#E4EAF6;" width="37.926" height="18.963"/>
<path style="fill:#959CB3;" d="M123.259,180.148v37.926H85.333c-5.236,0-9.481-4.245-9.481-9.481V189.63
	c0-5.236,4.245-9.481,9.481-9.481H123.259z"/>
<circle style="fill:#5B5D6E;" cx="42.667" cy="199.111" r="14.222"/>
<rect x="47.407" y="132.741" style="fill:#E4EAF6;" width="37.926" height="18.963"/>
<path style="fill:#959CB3;" d="M123.259,123.259v37.926H85.333c-5.236,0-9.481-4.245-9.481-9.481v-18.963
	c0-5.236,4.245-9.481,9.481-9.481H123.259z"/>
<circle style="fill:#5B5D6E;" cx="42.667" cy="142.222" r="14.222"/>
<rect x="47.407" y="360.296" style="fill:#E4EAF6;" width="37.926" height="18.963"/>
<path style="fill:#959CB3;" d="M123.259,350.815v37.926H85.333c-5.236,0-9.481-4.245-9.481-9.481v-18.963
	c0-5.236,4.245-9.481,9.481-9.481H123.259z"/>
<circle style="fill:#5B5D6E;" cx="42.667" cy="369.778" r="14.222"/>
<rect x="47.407" y="303.407" style="fill:#E4EAF6;" width="37.926" height="18.963"/>
<path style="fill:#959CB3;" d="M123.259,293.926v37.926H85.333c-5.236,0-9.481-4.245-9.481-9.482v-18.963
	c0-5.236,4.245-9.481,9.481-9.481H123.259z"/>
<circle style="fill:#5B5D6E;" cx="42.667" cy="312.889" r="14.222"/>
<rect x="426.667" y="246.519" style="fill:#E4EAF6;" width="37.926" height="18.963"/>
<path style="fill:#959CB3;" d="M388.741,274.963v-37.926h37.926c5.236,0,9.482,4.245,9.482,9.481v18.963
	c0,5.236-4.245,9.481-9.482,9.481H388.741z"/>
<circle style="fill:#5B5D6E;" cx="469.333" cy="256" r="14.222"/>
<rect x="426.667" y="303.407" style="fill:#E4EAF6;" width="37.926" height="18.963"/>
<path style="fill:#959CB3;" d="M388.741,331.852v-37.926h37.926c5.236,0,9.482,4.245,9.482,9.481v18.963
	c0,5.236-4.245,9.482-9.482,9.482H388.741z"/>
<circle style="fill:#5B5D6E;" cx="469.333" cy="312.889" r="14.222"/>
<rect x="426.667" y="360.296" style="fill:#E4EAF6;" width="37.926" height="18.963"/>
<path style="fill:#959CB3;" d="M388.741,388.741v-37.926h37.926c5.236,0,9.482,4.245,9.482,9.481v18.963
	c0,5.236-4.245,9.481-9.482,9.481H388.741z"/>
<circle style="fill:#5B5D6E;" cx="469.333" cy="369.778" r="14.222"/>
<rect x="426.667" y="132.741" style="fill:#E4EAF6;" width="37.926" height="18.963"/>
<path style="fill:#959CB3;" d="M388.741,161.185v-37.926h37.926c5.236,0,9.482,4.245,9.482,9.481v18.963
	c0,5.236-4.245,9.481-9.482,9.481H388.741z"/>
<circle style="fill:#5B5D6E;" cx="469.333" cy="142.222" r="14.222"/>
<rect x="426.667" y="189.63" style="fill:#E4EAF6;" width="37.926" height="18.963"/>
<path style="fill:#959CB3;" d="M388.741,218.074v-37.926h37.926c5.236,0,9.482,4.245,9.482,9.481v18.963
	c0,5.236-4.245,9.481-9.482,9.481H388.741z"/>
<g>
	<circle style="fill:#5B5D6E;" cx="469.333" cy="199.111" r="14.222"/>
	<path style="fill:#5B5D6E;" d="M388.741,407.704H123.259c-10.473,0-18.963-8.489-18.963-18.963V123.259
		c0-10.473,8.489-18.963,18.963-18.963h265.482c10.473,0,18.963,8.489,18.963,18.963v265.482
		C407.704,399.214,399.214,407.704,388.741,407.704z"/>
</g>
<circle style="fill:#464655;" cx="137.481" cy="137.481" r="14.222"/>
<g>
	<circle style="fill:#6EC864;" cx="71.111" cy="42.667" r="14.222"/>
	<circle style="fill:#6EC864;" cx="440.889" cy="42.667" r="14.222"/>
	<circle style="fill:#6EC864;" cx="71.111" cy="469.333" r="14.222"/>
	<circle style="fill:#6EC864;" cx="440.889" cy="469.333" r="14.222"/>
</g>
<path style="fill:#959CB3;" d="M350.815,232.296c0-19.066-13.792-35.247-32.761-40.699c0.485-2.185,0.761-4.423,0.761-6.708
	c0-18.297-16.213-33.185-36.148-33.185c-10.548,0-20.053,4.171-26.667,10.807c-6.613-6.637-16.119-10.807-26.667-10.807
	c-19.935,0-36.148,14.889-36.148,33.185c0,2.284,0.276,4.523,0.761,6.708c-18.969,5.452-32.761,21.633-32.761,40.699
	c0,10.597,4.435,20.717,12.083,28.444c-7.648,7.727-12.083,17.848-12.083,28.444c0,14.574,8.247,28.084,21.448,35.865
	c1.51,19.665,19.482,35.246,41.367,35.246c12.866,0,24.385-5.385,32-13.819c7.615,8.435,19.134,13.819,32,13.819
	c22.756,0,41.287-16.845,41.473-37.614c13.286-8.863,21.342-23.052,21.342-38.238c0-9.89-3.354-19.187-9.179-26.891
	C347.592,250.292,350.815,241.553,350.815,232.296z M224,341.333c-12.417,0-22.519-8.505-22.519-18.963
	c0-7.876,5.907-15.019,14.694-17.778c4.991-1.569,7.769-6.893,6.203-11.889c-1.564-4.991-6.88-7.782-11.889-6.203
	c-10.289,3.231-18.487,9.934-23.285,18.378c-4.441-4.283-7.057-9.86-7.057-15.693c0-8.158,4.981-15.657,13.324-20.06
	c3.111-1.639,5.056-4.87,5.056-8.384c0-3.514-1.945-6.745-5.056-8.384c-8.343-4.403-13.324-11.903-13.324-20.06
	c0-13.009,12.376-23.601,27.639-23.699c0.168,0.004,0.335,0.007,0.504,0.002c4.21,0.036,8.25,0.849,12.006,2.433
	c4.815,2.042,10.389-0.223,12.425-5.051c2.028-4.828-0.231-10.389-5.056-12.421c-4.587-1.933-9.415-3.157-14.401-3.662
	c-0.646-1.404-1.116-3.078-1.116-5.01c0-7.842,7.713-14.222,17.185-14.222c9.472,0,17.185,6.38,17.185,14.222v58.248
	c-6.491-3.853-14.221-6.1-22.519-6.1c-5.241,0-9.481,4.245-9.481,9.481S218.759,256,224,256c12.417,0,22.519,8.505,22.519,18.963
	v47.407C246.519,332.828,236.417,341.333,224,341.333z M323.705,303.054c-1.464-2.261-3.182-4.398-5.158-6.364
	c-3.713-3.689-9.713-3.662-13.408,0.041c-3.694,3.718-3.676,9.722,0.037,13.412c3.444,3.422,5.343,7.764,5.343,12.228
	c0,10.458-10.101,18.963-22.519,18.963c-12.417,0-22.519-8.505-22.519-18.963v-9.481c0-7.876,5.907-15.019,14.694-17.778
	c4.991-1.569,7.769-6.893,6.203-11.889c-1.564-4.991-6.88-7.778-11.889-6.203c-3.223,1.012-6.235,2.37-9.01,4.009v-96.14
	c0-7.842,7.713-14.222,17.185-14.222c9.472,0,17.185,6.38,17.185,14.222c0,3.656-1.666,6.412-3.078,8.091
	c-0.621,0.731-1.137,1.555-1.515,2.451c-1.579,3.725-0.641,8.196,2.611,10.939c1.825,1.544,4.066,2.266,6.283,2.226
	c15.291,0.07,27.7,10.675,27.7,23.7c0,4.507-1.542,8.839-4.386,12.589c-4.79-2.88-10.167-5.074-15.983-6.408
	c-5.064-1.144-10.185,2.018-11.361,7.121c-1.176,5.102,2.018,10.19,7.121,11.361c14.49,3.328,24.61,14.629,24.61,27.486
	C331.852,291.328,328.863,297.935,323.705,303.054z"/>
<g>
</g>
<g>
</g>
<g>
</g>
<g>
</g>
<g>
</g>
<g>
</g>
<g>
</g>
<g>
</g>
<g>
</g>
<g>
</g>
<g>
</g>
<g>
</g>
<g>
</g>
<g>
</g>
<g>
</g>
</svg>
