<?xml version="1.0" encoding="iso-8859-1"?>
<!-- Generator: Adobe Illustrator 19.0.0, SVG Export Plug-In . SVG Version: 6.00 Build 0)  -->
<svg version="1.1" id="Capa_1" xmlns="http://www.w3.org/2000/svg" xmlns:xlink="http://www.w3.org/1999/xlink" x="0px" y="0px"
	 viewBox="0 0 496.485 496.485" style="enable-background:new 0 0 496.485 496.485;" xml:space="preserve">
<circle style="fill:#E1E6E9;" cx="248.296" cy="213.333" r="213.333"/>
<g>
	<rect x="72.199" y="75.248" style="fill:#193651;" width="126.448" height="15.515"/>
	<rect x="42.72" y="75.248" style="fill:#193651;" width="14.739" height="15.515"/>
	<rect x="13.242" y="75.248" style="fill:#193651;" width="14.739" height="15.515"/>
</g>
<polyline style="fill:#2EA2DB;" points="475.593,488.727 418.963,428.994 332.854,428.994 284.757,375.467 209.508,375.467 
	161.411,428.994 74.526,428.994 20.999,488.727 "/>
<path style="fill:#193651;" d="M20.999,496.485c-1.552,0-3.879-0.776-5.43-2.327c-3.103-3.103-3.103-7.758-0.776-10.861
	l53.527-59.733c1.552-1.552,3.879-2.327,5.43-2.327h83.006l45.77-51.2c1.552-1.552,3.879-2.327,5.43-2.327h75.248
	c2.327,0,4.655,0.776,5.43,2.327l45.77,51.2h84.558c2.327,0,3.879,0.776,5.43,2.327l56.63,59.733c3.103,3.103,3.103,7.758,0,10.861
	c-3.103,3.103-7.758,3.103-10.861,0l-54.303-57.406h-83.006c-2.327,0-4.655-0.776-5.43-2.327l-45.77-51.2h-68.267l-45.77,51.2
	c-1.552,1.552-3.879,2.327-5.43,2.327H78.405l-51.2,57.406C24.878,495.709,23.326,496.485,20.999,496.485z"/>
<path style="fill:#FDBF5E;" d="M228.902,393.309h38.788c67.491-20.17,126.448-113.261,126.448-202.473
	c0-100.073-65.164-156.703-145.842-156.703s-145.842,56.63-145.842,156.703C102.454,280.048,161.411,373.139,228.902,393.309z"/>
<g>
	<path style="fill:#193651;" d="M267.69,401.067h-38.788c-0.776,0-1.552,0-2.327,0c-71.37-20.945-131.879-117.139-131.879-209.455
		c0-98.521,61.285-164.461,153.6-164.461c91.539,0,153.6,65.939,153.6,164.461c0,92.315-60.509,188.509-131.879,209.455
		C269.242,401.067,268.466,401.067,267.69,401.067z M229.678,385.552h36.461c63.612-19.394,119.467-110.158,119.467-194.715
		c0-89.212-55.079-148.945-138.085-148.945c-82.23,0-138.085,59.733-138.085,148.945
		C110.211,275.394,166.066,365.382,229.678,385.552z"/>
	<polygon style="fill:#193651;" points="328.199,164.461 298.72,134.982 328.199,104.727 339.06,115.588 320.442,134.982 
		339.06,153.6 	"/>
	<rect x="309.581" y="127.224" style="fill:#193651;" width="118.691" height="15.515"/>
	<rect x="442.236" y="127.224" style="fill:#193651;" width="13.964" height="15.515"/>
	<rect x="469.387" y="127.224" style="fill:#193651;" width="13.964" height="15.515"/>
	<polygon style="fill:#193651;" points="346.042,242.812 316.563,213.333 346.042,183.855 356.902,194.715 338.284,213.333 
		356.902,231.952 	"/>
	<rect x="327.423" y="205.576" style="fill:#193651;" width="118.691" height="15.515"/>
	<polygon style="fill:#193651;" points="164.514,200.145 153.654,189.285 172.272,170.667 153.654,152.048 164.514,141.188 
		194.769,170.667 	"/>
	<rect x="49.702" y="162.909" style="fill:#193651;" width="133.43" height="15.515"/>
	<rect x="200.975" y="70.594" style="fill:#193651;" width="15.515" height="14.739"/>
	<rect x="240.539" y="70.594" style="fill:#193651;" width="15.515" height="14.739"/>
	<rect x="280.102" y="70.594" style="fill:#193651;" width="15.515" height="14.739"/>
	<path style="fill:#193651;" d="M159.86,266.085c-3.103-3.103-3.103-7.758,0-10.861s7.758-3.103,10.861,0
		c10.861,10.861,28.703,10.861,39.564,0c3.103-3.103,7.758-3.103,10.861,0s3.103,7.758,0,10.861
		C204.078,283.152,176.926,283.152,159.86,266.085z"/>
	<path style="fill:#193651;" d="M275.448,266.085c-3.103-3.103-3.103-7.758,0-10.861c3.103-3.103,7.758-3.103,10.861,0
		c10.861,10.861,28.703,10.861,39.564,0c3.103-3.103,7.758-3.103,10.861,0c3.103,3.103,3.103,7.758,0,10.861
		C319.666,283.152,291.739,283.152,275.448,266.085z"/>
	<path style="fill:#193651;" d="M264.587,341.333h-32.582c-4.655,0-7.758-3.103-7.758-7.758s3.103-7.758,7.758-7.758h32.582
		c4.655,0,7.758,3.103,7.758,7.758C272.345,337.455,268.466,341.333,264.587,341.333z"/>
</g>
<g>
</g>
<g>
</g>
<g>
</g>
<g>
</g>
<g>
</g>
<g>
</g>
<g>
</g>
<g>
</g>
<g>
</g>
<g>
</g>
<g>
</g>
<g>
</g>
<g>
</g>
<g>
</g>
<g>
</g>
</svg>
