<?xml version="1.0" encoding="iso-8859-1"?>
<!-- Generator: Adobe Illustrator 19.0.0, SVG Export Plug-In . SVG Version: 6.00 Build 0)  -->
<svg version="1.1" id="Capa_1" xmlns="http://www.w3.org/2000/svg" xmlns:xlink="http://www.w3.org/1999/xlink" x="0px" y="0px"
	 viewBox="0 0 496 496" style="enable-background:new 0 0 496 496;" xml:space="preserve">
<path style="fill:#333333;" d="M480,392v-40h-16V128h-16V88h-48V40h-16V0h-64v40h-16V0h-64v40h-16V0h-64v40h-16V0H80v40H64v48H16v40
	H0v368h160V144h144v208h-48v40h-16v104h256V392H480z M432,392v-24h32v24H432z M320,232h128v72H320V232z M432,104v24h-32v-24H432z
	 M336,16h32v24h-32V16z M256,16h32v24h-32V16z M176,16h32v24h-32V16z M96,16h32v24H96V16z M32,104h32v24H32V104z M16,232h128v72H16
	V232z M16,480v-72h96v-16H16v-72h128v72h-16v16h16v72H16z M144,216H16v-72h48h80V216z M352,144v-16H160H80V56h304v72h-16v16h24h8h48
	v72H320v-72H352z M320,320h128v32h-32v40h-16v-40h-64v40h-16v-32v-8V320z M384,392h-32v-24h32V392z M272,368h32v24h-32V368z
	 M480,480H256v-72h224V480z"/>
<g>
	<rect x="256" y="448" style="fill:#FFA64D;" width="224" height="16"/>
	<rect x="16" y="448" style="fill:#FFA64D;" width="128" height="16"/>
	<rect x="16" y="360" style="fill:#FFA64D;" width="128" height="16"/>
	<rect x="16" y="272" style="fill:#FFA64D;" width="128" height="16"/>
	<rect x="16" y="184" style="fill:#FFA64D;" width="128" height="16"/>
	<rect x="320" y="272" style="fill:#FFA64D;" width="128" height="16"/>
	<rect x="320" y="184" style="fill:#FFA64D;" width="128" height="16"/>
	<rect x="80" y="96" style="fill:#FFA64D;" width="304" height="16"/>
</g>
<g>
</g>
<g>
</g>
<g>
</g>
<g>
</g>
<g>
</g>
<g>
</g>
<g>
</g>
<g>
</g>
<g>
</g>
<g>
</g>
<g>
</g>
<g>
</g>
<g>
</g>
<g>
</g>
<g>
</g>
</svg>
