<?xml version="1.0" encoding="iso-8859-1"?>
<!-- Generator: Adobe Illustrator 19.0.0, SVG Export Plug-In . SVG Version: 6.00 Build 0)  -->
<svg version="1.1" id="Capa_1" xmlns="http://www.w3.org/2000/svg" xmlns:xlink="http://www.w3.org/1999/xlink" x="0px" y="0px"
	 viewBox="0 0 512 512" style="enable-background:new 0 0 512 512;" xml:space="preserve">
<path style="fill:#F2BB80;" d="M255.988,8.533L255.988,8.533c23.561,0,42.667,19.106,42.667,42.667v51.2
	c0,23.561-19.106,42.667-42.667,42.667l0,0c-23.561,0-42.667-19.106-42.667-42.667V51.2C213.321,27.639,232.419,8.533,255.988,8.533
	z"/>
<path style="fill:#EBB071;" d="M270.384,11.204c1.724,4.608,2.628,9.481,2.671,14.396v51.2c0,23.561-19.106,42.667-42.667,42.667
	c-4.915-0.043-9.788-0.947-14.396-2.671c7.885,22.144,32.23,33.707,54.374,25.822c16.998-6.05,28.339-22.17,28.288-40.218V51.2
	C298.612,33.237,287.305,17.229,270.384,11.204z"/>
<path style="fill:#F2BB80;" d="M426.655,487.893c0-6.11-3.567-11.648-9.131-14.174l-71.526-32.546
	c-7.612-3.456-16.614-0.887-21.257,6.067l-9.02,13.559l-204.8-59.733H76.788c-28.279,0-51.2,22.921-51.2,51.2s22.921,51.2,51.2,51.2
	h334.293C419.674,503.467,426.655,496.495,426.655,487.893L426.655,487.893z"/>
<path style="fill:#4398D1;" d="M153.588,145.067V204.8l12.8,51.2l12.8,51.2v93.867h153.6V307.2c-1.067-2.133,12.8-51.2,12.8-51.2
	l12.8-51.2v-59.733H153.588z"/>
<path style="fill:#3E8CC7;" d="M321.891,145.067c-13.244,43.759-29.568,86.537-48.836,128
	c-21.581,44.595-53.82,83.183-93.867,112.341v15.659h153.6V307.2c-1.067-2.133,12.8-51.2,12.8-51.2l12.8-51.2v-59.733H321.891z"/>
<path style="fill:#E8A864;" d="M433.037,401.067H238.921l-4.642-13.926c-2.33-6.972-8.849-11.674-16.196-11.674h-92.535
	c-8.081-0.009-14.635,6.528-14.643,14.609c-0.009,6.511,4.292,12.245,10.547,14.063l194.27,56.661l9.02-13.525
	c4.642-6.955,13.645-9.523,21.257-6.067l71.526,32.512c7.825,3.567,11.281,12.8,7.723,20.625c-2.534,5.555-8.073,9.122-14.165,9.122
	h24.107c28.279,0.017,51.209-22.895,51.226-51.174c0-0.538-0.009-1.067-0.026-1.604C484.784,422.52,461.249,400.632,433.037,401.067
	z"/>
<path style="fill:#F2BB80;" d="M220.301,219.793L204.788,256h-102.4l51.2-51.2v-59.733c-21.743,0.009-42.487,9.139-57.173,25.165
	l-59.52,64.905c-7.27,7.927-11.307,18.295-11.307,29.056l0,0c-0.009,23.748,19.243,42.999,42.991,43.008c0.009,0,0.009,0,0.017,0
	h187.392V196.267C240.457,196.267,226.42,205.525,220.301,219.793z"/>
<path style="fill:#E8A864;" d="M415.561,170.231c-14.686-16.026-35.43-25.156-57.173-25.165V204.8l51.2,51.2h-102.4l-15.514-36.207
	c-6.127-14.268-20.164-23.526-35.686-23.526V307.2H443.38c23.748,0.009,42.999-19.243,43.008-42.991c0-0.009,0-0.009,0-0.017l0,0
	c0-10.761-4.036-21.129-11.307-29.056L415.561,170.231z"/>
<path style="fill:#EBB071;" d="M426.655,487.893c0-6.11-3.567-11.648-9.131-14.174l-9.643-4.386H93.855
	c-27.042-0.009-51.533-15.991-62.438-40.738c-13.073,25.071-3.345,55.996,21.726,69.069c7.305,3.806,15.411,5.794,23.646,5.803
	h334.293C419.674,503.467,426.655,496.495,426.655,487.893L426.655,487.893z"/>
<path style="fill:#E3A35F;" d="M409.588,469.333h-1.707l9.643,4.386c7.825,3.567,11.281,12.8,7.723,20.625
	c-2.534,5.555-8.073,9.122-14.165,9.122h24.107c28.279,0.017,51.209-22.895,51.226-51.174c0-0.538-0.009-1.067-0.026-1.604
	c-0.273-8.806-2.927-17.374-7.68-24.798C465.916,452.446,439.053,469.333,409.588,469.333z"/>
<path style="fill:#E8A864;" d="M340.118,439.714c0.998,0.068,1.997,0.222,2.97,0.469
	C342.106,439.936,341.116,439.782,340.118,439.714z"/>
<path style="fill:#E3A35F;" d="M470.618,264.405c-6.084,10.633-17.391,17.195-29.636,17.195H290.795
	c-10.675,0-20.224-6.622-23.97-16.614l-10.837-28.894V307.2H443.38c23.561,0.196,42.82-18.756,43.017-42.317
	c0.06-6.903-1.562-13.713-4.719-19.849L470.618,264.405z"/>
<path style="fill:#EBB071;" d="M221.18,281.6H70.994c-12.245,0-23.561-6.562-29.636-17.195l-11.093-19.371
	c-10.769,20.958-2.509,46.677,18.449,57.446c6.144,3.157,12.971,4.779,19.883,4.719h187.392v-25.6H221.18V281.6z"/>
<path d="M17.055,452.267C17.089,485.24,43.816,511.966,76.788,512h358.4c32.99,0.017,59.742-26.718,59.759-59.708
	c0-0.614-0.009-1.237-0.026-1.852c-1.818-32.751-29.09-58.266-61.884-57.907h-91.716v-76.8H443.38
	c28.467,0,51.541-23.074,51.541-51.541c0-12.894-4.83-25.318-13.542-34.825l-59.503-64.905
	c-16.333-17.775-39.356-27.904-63.488-27.93h-64.341c8.457-9.361,13.141-21.521,13.141-34.133V51.2c0-28.279-22.921-51.2-51.2-51.2
	s-51.2,22.921-51.2,51.2v51.2c0,12.612,4.685,24.772,13.141,34.133h-64.341c-24.132,0.026-47.155,10.155-63.488,27.93
	l-59.503,64.905c-19.234,20.983-17.809,53.589,3.174,72.823c9.498,8.712,21.922,13.542,34.825,13.542h102.059v51.2h-45.107
	c-12.425-0.367-22.793,9.412-23.159,21.845c-0.034,1.254,0.034,2.509,0.205,3.755H76.788
	C43.807,392.568,17.089,419.294,17.055,452.267z M34.121,452.267c0.026-23.552,19.115-42.641,42.667-42.667h32.913l203.631,59.392
	c3.575,1.041,7.424-0.358,9.489-3.456l9.02-13.525c2.321-3.482,6.818-4.762,10.624-3.038L414,481.485
	c3.541,1.613,5.103,5.786,3.49,9.327c-1.143,2.509-3.652,4.122-6.409,4.122H76.788C53.227,494.908,34.147,475.819,34.121,452.267z
	 M468.792,240.896c12.868,14.037,11.921,35.84-2.116,48.708c-6.366,5.828-14.677,9.062-23.296,9.062H264.521v-92.629h0.102
	c1.86,0.572,3.669,1.323,5.385,2.244c0.418,0.222,0.853,0.461,1.246,0.7c1.621,0.93,3.157,2.014,4.582,3.226l0.213,0.162
	c1.451,1.314,2.773,2.773,3.951,4.343c0.29,0.384,0.572,0.768,0.853,1.169c1.169,1.647,2.167,3.405,2.987,5.248l15.514,36.207
	c1.34,3.14,4.42,5.188,7.834,5.197h102.4c4.71,0,8.533-3.823,8.533-8.533c0-2.261-0.896-4.429-2.5-6.033l-48.7-48.7v-47.138
	c16.265,2.048,31.283,9.796,42.377,21.871L468.792,240.896z M362.979,221.491l26.01,25.975h-32.427L362.979,221.491z
	 M349.855,203.75l-10.931,43.716h-26.112l-13.303-31.036c-10.317-24.038-38.17-35.157-62.199-24.841
	c-11.162,4.787-20.053,13.679-24.841,24.841l-13.303,31.036h-26.112l-10.931-43.716V153.6h187.733v50.15H349.855z M148.963,221.491
	l6.494,25.975H123.03L148.963,221.491z M221.855,102.4V51.2c0-18.85,15.283-34.133,34.133-34.133S290.121,32.35,290.121,51.2v51.2
	c0,18.85-15.283,34.133-34.133,34.133C237.129,136.533,221.855,121.25,221.855,102.4z M34.121,264.192
	c-0.009-8.627,3.226-16.939,9.062-23.296l59.494-64.853c11.085-12.092,26.103-19.857,42.377-21.914v47.138l-48.7,48.7
	c-3.328,3.337-3.328,8.738,0,12.066c1.596,1.604,3.763,2.5,6.033,2.5h102.4c3.413,0,6.494-2.031,7.842-5.171l15.514-36.207
	c0.819-1.843,1.818-3.593,2.978-5.239c0.282-0.401,0.563-0.802,0.853-1.186c1.169-1.57,2.483-3.012,3.934-4.326
	c0.077-0.068,0.171-0.119,0.247-0.188c1.417-1.212,2.944-2.278,4.557-3.209c0.41-0.239,0.853-0.478,1.254-0.7
	c1.715-0.922,3.516-1.673,5.376-2.244h0.102v92.604H68.596C49.558,298.65,34.138,283.221,34.121,264.192z M187.721,315.733h136.533
	v76.8h-79.181l-2.705-8.098c-3.49-10.453-13.269-17.502-24.277-17.502h-30.37L187.721,315.733L187.721,315.733z M125.547,384h92.544
	c3.678,0,6.938,2.347,8.098,5.837l4.642,13.926c1.152,3.482,4.412,5.837,8.09,5.837h194.116
	c23.595-0.418,43.341,17.801,44.817,41.353c0.725,23.552-17.783,43.238-41.335,43.964c-0.444,0.009-0.887,0.017-1.331,0.017h-1.05
	c0.145-0.469,0.213-0.973,0.333-1.451c0.119-0.478,0.196-0.811,0.273-1.229c0.282-1.434,0.427-2.893,0.444-4.361
	c0-9.455-5.521-18.048-14.123-21.973l-71.535-32.521c-11.418-5.239-24.951-1.374-31.889,9.105l-5.547,8.311l-188.245-54.869
	c-3.234-0.93-5.094-4.309-4.164-7.543C120.436,385.792,122.834,383.991,125.547,384L125.547,384z"/>
<g>
</g>
<g>
</g>
<g>
</g>
<g>
</g>
<g>
</g>
<g>
</g>
<g>
</g>
<g>
</g>
<g>
</g>
<g>
</g>
<g>
</g>
<g>
</g>
<g>
</g>
<g>
</g>
<g>
</g>
</svg>
