<?xml version="1.0" encoding="iso-8859-1"?>
<!-- Generator: Adobe Illustrator 19.0.0, SVG Export Plug-In . SVG Version: 6.00 Build 0)  -->
<svg version="1.1" id="Capa_1" xmlns="http://www.w3.org/2000/svg" xmlns:xlink="http://www.w3.org/1999/xlink" x="0px" y="0px"
	 viewBox="0 0 512.002 512.002" style="enable-background:new 0 0 512.002 512.002;" xml:space="preserve">
<path style="fill:#70B5E8;" d="M338.017,14.503c-2.142-2.142-4.694-3.877-7.528-5.075c-5.804-2.455-3.783-1.861-60.952-1.861
	c-259.576,0-240.57-0.944-247.2,1.861c-4.556,1.927-8.43,5.258-11.036,9.54c-3.639,5.988-3.291,11.326-3.429,12.28
	c0,355.01-1.145,327.412,4.044,335.099c4.253,6.296,11.46,10.441,19.637,10.441c281.136,0,6.443,0,289.716,0
	c8.441,0,16.017-4.438,20.253-11.402c3.639-5.988,3.291-11.326,3.429-12.28c0-2.197,0-50.206,0-48.008c0-93.94,0-178.64,0-273.85
	C344.953,26.618,342.308,18.795,338.017,14.503z"/>
<path style="fill:#52A5D8;" d="M41.408,366.136c-3.639-5.989-3.291-11.326-3.429-12.28c0-69.001,0-258.444,0-321.858
	c0-10.659,7.063-19.806,17.011-22.722V7.568c-24.281,0-26.751-0.635-32.653,1.861c-4.505,1.905-8.401,5.21-11.036,9.54
	c-3.639,5.988-3.291,11.326-3.429,12.28c0,355.01-1.145,327.412,4.044,335.099c4.253,6.296,11.46,10.441,19.637,10.441
	c8.414,0,15.846,0,24.174,0c-4.157-1.072-7.871-3.244-10.815-6.187C43.569,369.255,42.399,367.765,41.408,366.136z"/>
<path style="fill:#666666;" d="M344.953,71.579c0-41.194,2.071-48.067-6.937-57.075c-4.285-4.285-10.205-6.936-16.743-6.937H31.553
	c-8.459,0.001-16.023,4.454-20.25,11.402c-3.639,5.989-3.291,11.326-3.429,12.28v40.33H344.953z"/>
<path style="fill:#535454;" d="M38.17,31.249c0-13.18,10.715-23.68,23.679-23.682H31.553C18.454,7.569,7.874,18.191,7.874,31.249
	c0,24.95,0,15.371,0,40.33H38.17C38.17,46.618,38.17,56.206,38.17,31.249z"/>
<g>
	<path style="fill:#52A5D8;" d="M388.818,103.079h-87.729c-6.008,0-10.923,4.916-10.923,10.923v35.775
		c0,6.008,4.915,10.923,10.923,10.923h87.729c6.008,0,10.924-4.915,10.924-10.923v-35.775
		C399.741,107.995,394.826,103.079,388.818,103.079z"/>
	<path style="fill:#52A5D8;" d="M493.313,347.978h-87.729c-6.008,0-10.923,4.915-10.923,10.923v35.774
		c0,6.008,4.915,10.923,10.923,10.923h87.729c6.008,0,10.923-4.915,10.923-10.923v-35.773
		C504.236,352.894,499.321,347.978,493.313,347.978z"/>
</g>
<path style="fill:#92B620;" d="M388.818,446.964h-87.729c-6.008,0-10.923,4.916-10.923,10.923v35.775
	c0,6.008,4.915,10.923,10.923,10.923h87.729c6.008,0,10.923-4.915,10.923-10.923v-35.775
	C399.741,451.879,394.826,446.964,388.818,446.964z"/>
<path style="fill:#52A5D8;" d="M284.322,347.978h-87.729c-6.008,0-10.923,4.915-10.923,10.923v35.774
	c0,6.008,4.915,10.923,10.923,10.923h87.729c6.008,0,10.923-4.915,10.923-10.923v-35.773
	C295.245,352.894,290.33,347.978,284.322,347.978z"/>
<g>
	<path style="fill:#3094C6;" d="M320.129,149.777v-35.775c0-6.008,4.915-10.923,10.923-10.923h-29.963
		c-6.008,0-10.923,4.916-10.923,10.923v35.775c0,6.008,4.915,10.923,10.923,10.923h29.963
		C325.044,160.701,320.129,155.785,320.129,149.777z"/>
	<path style="fill:#3094C6;" d="M424.624,394.676v-35.774c0-6.008,4.915-10.923,10.923-10.923h-29.963
		c-6.008,0-10.923,4.915-10.923,10.923v35.774c0,6.008,4.915,10.923,10.923,10.923h29.963
		C429.54,405.6,424.624,400.684,424.624,394.676z"/>
</g>
<path style="fill:#89A511;" d="M320.129,493.662v-35.775c0-6.008,4.915-10.923,10.923-10.923h-29.963
	c-6.008,0-10.923,4.916-10.923,10.923v35.775c0,6.008,4.915,10.923,10.923,10.923h29.963
	C325.044,504.585,320.129,499.67,320.129,493.662z"/>
<path style="fill:#3094C6;" d="M215.633,394.676v-35.774c0-6.008,4.915-10.923,10.923-10.923h-29.963
	c-6.008,0-10.923,4.915-10.923,10.923v35.774c0,6.008,4.915,10.923,10.923,10.923h29.963
	C220.548,405.6,215.633,400.684,215.633,394.676z"/>
<path style="fill:#FFB70D;" d="M341.609,232.207l-84.701,38.18c-6.389,2.879-6.389,11.951,0,14.832l84.701,38.18
	c2.125,0.958,4.56,0.958,6.686,0l84.702-38.18c6.389-2.879,6.389-11.951,0-14.832l-84.702-38.18
	C346.17,231.249,343.736,231.249,341.609,232.207z"/>
<path style="fill:#F4A403;" d="M288.825,267.712c-3.899-1.758-5.915-5.323-6.089-8.967l-25.827,11.643
	c-6.389,2.879-6.389,11.951,0,14.832l84.701,38.18c2.125,0.958,4.56,0.958,6.686,0l32.035-14.44L288.825,267.712z"/>
<path d="M48.286,35.339c-0.271-0.41-0.59-0.799-0.93-1.139c-0.35-0.35-0.728-0.659-1.139-0.929c-0.41-0.27-0.85-0.509-1.298-0.689
	c-0.449-0.191-0.919-0.33-1.398-0.429c-0.969-0.2-1.958-0.2-2.926,0c-0.479,0.1-0.949,0.24-1.408,0.429
	c-0.449,0.18-0.879,0.419-1.288,0.689s-0.789,0.579-1.139,0.929c-1.398,1.398-2.197,3.326-2.197,5.294
	c0,1.978,0.799,3.905,2.197,5.304c1.397,1.388,3.325,2.187,5.294,2.187c0.489,0,0.978-0.05,1.468-0.14
	c0.479-0.1,0.949-0.24,1.398-0.429c0.448-0.19,0.889-0.419,1.298-0.689c0.41-0.28,0.789-0.589,1.139-0.929
	c0.34-0.35,0.659-0.729,0.93-1.139c0.27-0.41,0.499-0.849,0.688-1.298c0.18-0.449,0.33-0.919,0.419-1.398
	c0.101-0.489,0.15-0.979,0.15-1.468s-0.05-0.979-0.15-1.458c-0.09-0.479-0.24-0.949-0.419-1.408
	C48.785,36.178,48.554,35.748,48.286,35.339z"/>
<path d="M73.364,35.339c-0.27-0.41-0.579-0.799-0.929-1.139c-0.351-0.35-0.729-0.659-1.14-0.929
	c-0.409-0.27-0.839-0.509-1.287-0.689c-0.46-0.191-0.93-0.33-1.408-0.429c-0.959-0.2-1.958-0.2-2.927,0
	c-0.478,0.1-0.948,0.24-1.397,0.429c-0.449,0.18-0.89,0.419-1.298,0.689c-0.41,0.27-0.789,0.579-1.14,0.929
	c-0.34,0.34-0.659,0.729-0.929,1.139c-0.271,0.41-0.499,0.839-0.689,1.288c-0.189,0.459-0.33,0.929-0.419,1.408
	c-0.1,0.479-0.149,0.969-0.149,1.458c0,1.978,0.799,3.905,2.186,5.304c0.351,0.34,0.729,0.649,1.14,0.929
	c0.409,0.27,0.849,0.499,1.298,0.689c0.449,0.19,0.919,0.33,1.397,0.429c0.479,0.09,0.979,0.14,1.469,0.14
	c0.488,0,0.978-0.05,1.458-0.14c0.478-0.1,0.948-0.24,1.408-0.429c0.448-0.19,0.879-0.419,1.287-0.689
	c0.41-0.28,0.789-0.589,1.14-0.929c1.397-1.398,2.197-3.326,2.197-5.304c0-0.489-0.051-0.979-0.15-1.458
	c-0.1-0.479-0.24-0.949-0.429-1.408C73.873,36.178,73.635,35.748,73.364,35.339z"/>
<path d="M98.453,35.339c-0.28-0.41-0.589-0.799-0.929-1.139c-0.351-0.35-0.729-0.659-1.14-0.929
	c-0.409-0.27-0.849-0.509-1.298-0.689c-0.449-0.191-0.919-0.33-1.397-0.429c-0.97-0.19-1.969-0.19-2.927,0
	c-0.478,0.1-0.949,0.24-1.408,0.429c-0.448,0.18-0.889,0.419-1.288,0.689c-0.409,0.27-0.799,0.579-1.139,0.929
	c-0.35,0.34-0.659,0.729-0.938,1.139c-0.261,0.41-0.499,0.839-0.68,1.288c-0.189,0.459-0.34,0.929-0.429,1.408
	c-0.101,0.479-0.15,0.969-0.15,1.458c0,0.489,0.05,0.979,0.15,1.468c0.09,0.479,0.24,0.949,0.429,1.398
	c0.181,0.449,0.419,0.889,0.68,1.288c0.279,0.42,0.589,0.799,0.938,1.149c0.34,0.34,0.729,0.649,1.139,0.929
	c0.4,0.27,0.84,0.499,1.288,0.689c0.459,0.19,0.93,0.33,1.408,0.429c0.479,0.09,0.97,0.14,1.458,0.14c0.489,0,0.979-0.05,1.469-0.14
	c0.478-0.1,0.948-0.24,1.397-0.429c0.449-0.19,0.89-0.419,1.298-0.689c0.41-0.28,0.789-0.589,1.14-0.929
	c0.34-0.35,0.648-0.729,0.929-1.149c0.271-0.4,0.499-0.839,0.689-1.288c0.18-0.449,0.33-0.919,0.419-1.398
	c0.1-0.489,0.149-0.979,0.149-1.468s-0.05-0.979-0.149-1.458c-0.09-0.479-0.24-0.949-0.419-1.408
	C98.953,36.178,98.724,35.748,98.453,35.339z"/>
<path d="M123.034,32.006c-4.138,0-7.491,3.354-7.491,7.491s3.353,7.491,7.491,7.491h125.164c4.138,0,7.491-3.354,7.491-7.491
	s-3.353-7.491-7.491-7.491H123.034z"/>
<path d="M270.161,39.497c0,4.137,3.353,7.491,7.491,7.491h17.213c4.138,0,7.491-3.354,7.491-7.491s-3.353-7.491-7.491-7.491h-17.213
	C273.515,32.006,270.161,35.36,270.161,39.497z"/>
<path d="M378.098,131.814c0-4.137-3.353-7.491-7.491-7.491h-26.852c-4.138,0-7.491,3.354-7.491,7.491s3.353,7.491,7.491,7.491
	h26.852C374.744,139.305,378.098,135.951,378.098,131.814z"/>
<path d="M326.105,128.945c-0.18-0.449-0.419-0.889-0.688-1.288c-0.271-0.41-0.579-0.799-0.93-1.139
	c-0.34-0.35-0.729-0.659-1.139-0.929s-0.839-0.509-1.288-0.689c-0.459-0.19-0.929-0.33-1.408-0.429c-0.959-0.2-1.958-0.19-2.926,0
	c-0.479,0.1-0.949,0.24-1.398,0.429c-0.448,0.18-0.889,0.419-1.298,0.689c-0.41,0.27-0.789,0.579-1.139,0.929
	c-1.389,1.388-2.187,3.326-2.187,5.294c0,1.978,0.799,3.905,2.187,5.294c0.35,0.35,0.728,0.659,1.139,0.939
	c0.41,0.27,0.85,0.499,1.298,0.689c0.449,0.18,0.919,0.33,1.398,0.419c0.489,0.1,0.979,0.15,1.468,0.15
	c0.489,0,0.979-0.05,1.458-0.15c0.479-0.09,0.949-0.24,1.408-0.419c0.449-0.19,0.879-0.419,1.288-0.689
	c0.41-0.28,0.799-0.589,1.139-0.939c1.398-1.388,2.197-3.316,2.197-5.294c0-0.489-0.05-0.979-0.149-1.458
	C326.435,129.873,326.295,129.404,326.105,128.945z"/>
<path d="M493.259,340.411h-36.374c-0.03-65.592,1.542-66.822-4.413-69.514l-42.306-19.07c-3.768-1.7-8.207-0.023-9.908,3.75
	c-1.7,3.771-0.021,8.207,3.751,9.908l27.156,12.241l-86.268,38.888l-86.268-38.887l86.268-38.887l27.226,12.272
	c3.769,1.699,8.206,0.022,9.908-3.75c1.7-3.771,0.021-8.207-3.751-9.907l-25.891-11.671v-57.67h36.374
	c10.154,0,18.414-8.261,18.414-18.414v-35.775c0-10.154-8.261-18.415-18.414-18.415h-36.374V31.173
	C352.389,14.094,338.584,0,321.216,0h-18.39c-4.138,0-7.491,3.354-7.491,7.491s3.353,7.491,7.491,7.491h18.39
	c8.99,0,16.191,7.291,16.191,16.191v32.839H15.311V31.173c0-8.872,7.17-16.191,16.191-16.191H267.87
	c4.138,0,7.491-3.354,7.491-7.491S272.008,0,267.87,0H31.502C14.11,0,0.329,14.124,0.329,31.173v321.858
	c0,17.056,13.776,31.173,31.173,31.173h30.644c4.138,0,7.491-3.353,7.491-7.491c0-4.138-3.353-7.491-7.491-7.491H31.502
	c-9.012,0-16.191-7.311-16.191-16.191V78.994h322.098v16.519h-36.375c-10.154,0-18.414,8.261-18.414,18.415v35.774v0.001
	c0,6.98,3.904,13.066,9.644,16.188c2.609,1.419,5.597,2.225,8.77,2.225h36.375l-0.001,57.669
	c-107.901,48.639-101.08,45.183-102.702,47.087c-3.15,3.692-1.196,1.932-1.794,67.542H196.54c-10.154,0-18.415,8.261-18.415,18.415
	v10.396H97.103c-4.138,0-7.491,3.353-7.491,7.491c0,4.138,3.353,7.491,7.491,7.491h81.022v10.396
	c0,10.154,8.261,18.415,18.415,18.415h36.375v51.761c0,10.154,8.261,18.415,18.414,18.415h31.294v10.396
	c0,10.154,8.261,18.414,18.414,18.414h87.73c10.154,0,18.414-8.261,18.414-18.415v-10.396h31.294
	c10.154,0,18.414-8.261,18.414-18.415v-51.761h36.374c10.154,0,18.414-8.261,18.414-18.415v-35.774
	C511.674,348.672,503.413,340.411,493.259,340.411z M301.034,153.133c-1.86,0-3.432-1.572-3.432-3.433v-35.774
	c0-1.861,1.572-3.433,3.432-3.433c10.617,0,77.043,0,87.73,0c1.86,0,3.432,1.572,3.432,3.433v35.775c0,1.86-1.572,3.432-3.432,3.432
	h-43.864H301.034z M247.895,289.322c55.891,25.046,79.083,35.984,89.507,40.388v24.651c0,8.195-6.667,14.862-14.862,14.862h-19.858
	v-10.395c0-10.154-8.26-18.415-18.414-18.415h-36.375L247.895,289.322z M196.539,398.033c-1.861,0-3.433-1.572-3.433-3.433
	c0-12.512,0-23.263,0-35.774c0-1.86,1.571-3.433,3.433-3.433c10.617,0,77.043,0,87.73,0c1.86,0,3.432,1.572,3.432,3.433V394.6
	c0,1.86-1.572,3.433-3.432,3.433H196.539z M392.197,493.585c0,1.86-1.572,3.433-3.432,3.433h-87.731
	c-1.861,0-3.432-1.572-3.432-3.433v-35.774c0-1.86,1.571-3.432,3.432-3.432h87.73c1.86,0,3.432,1.572,3.432,3.432v35.774H392.197z
	 M441.904,464.776c0,1.86-1.572,3.433-3.432,3.433h-31.294v-10.397c0-10.154-8.261-18.414-18.414-18.414h-87.731
	c-10.154,0-18.414,8.261-18.414,18.414v10.396h-31.294c-1.86,0-3.432-1.572-3.432-3.433v-51.761h36.374
	c10.154,0,18.414-8.261,18.414-18.415v-10.397h19.858c16.456,0,29.844-13.388,29.844-29.844v-24.685l89.521-40.353v51.091H405.53
	c-10.154,0-18.414,8.261-18.414,18.415V394.6c0,10.154,8.261,18.415,18.414,18.415h36.374V464.776z M496.692,394.6
	c0,1.86-1.571,3.433-3.433,3.433H405.53c-1.861,0-3.432-1.572-3.432-3.433v-35.774c0-1.86,1.571-3.433,3.432-3.433h87.729
	c1.861,0,3.433,1.572,3.433,3.433V394.6z"/>
<path d="M475.103,369.222H448.25c-4.138,0-7.491,3.353-7.491,7.491c0,4.138,3.353,7.491,7.491,7.491h26.852
	c4.137,0,7.491-3.353,7.491-7.491C482.593,372.575,479.239,369.222,475.103,369.222z"/>
<path d="M430.598,373.847c-0.18-0.449-0.409-0.89-0.679-1.288c-0.28-0.42-0.589-0.8-0.939-1.14c-0.34-0.35-0.728-0.659-1.139-0.939
	c-0.4-0.271-0.839-0.499-1.288-0.68c-0.449-0.189-0.929-0.34-1.398-0.429c-2.446-0.489-5.023,0.31-6.762,2.047
	c-0.35,0.34-0.659,0.72-0.939,1.14c-0.27,0.398-0.499,0.839-0.679,1.288c-0.189,0.448-0.34,0.929-0.429,1.407
	c-0.101,0.479-0.15,0.97-0.15,1.458c0,1.969,0.799,3.905,2.197,5.295c1.388,1.397,3.316,2.196,5.294,2.196
	c0.489,0,0.979-0.05,1.468-0.149c0.47-0.09,0.949-0.24,1.398-0.429c0.449-0.181,0.889-0.41,1.288-0.68
	c0.41-0.28,0.799-0.589,1.139-0.938c1.398-1.389,2.197-3.316,2.197-5.295c0-0.488-0.05-0.979-0.149-1.458
	C430.937,374.775,430.789,374.295,430.598,373.847z"/>
<path d="M370.607,468.207h-26.852c-4.138,0-7.491,3.353-7.491,7.491c0,4.138,3.353,7.491,7.491,7.491h26.852
	c4.138,0,7.491-3.353,7.491-7.491C378.098,471.561,374.744,468.207,370.607,468.207z"/>
<path d="M323.349,469.469c-0.41-0.27-0.839-0.499-1.288-0.689c-0.459-0.19-0.929-0.33-1.408-0.43c-0.959-0.189-1.958-0.189-2.926,0
	c-0.479,0.101-0.949,0.24-1.398,0.43c-0.448,0.19-0.889,0.419-1.298,0.689c-0.41,0.271-0.789,0.589-1.139,0.93
	c-1.389,1.397-2.187,3.326-2.187,5.304c0,1.968,0.799,3.895,2.187,5.294c0.35,0.351,0.728,0.659,1.139,0.93
	c0.41,0.27,0.85,0.499,1.298,0.688c0.449,0.19,0.919,0.33,1.398,0.429c0.489,0.101,0.979,0.15,1.468,0.15
	c0.489,0,0.979-0.05,1.458-0.15c0.479-0.1,0.949-0.239,1.408-0.429c0.449-0.189,0.879-0.419,1.288-0.688
	c0.41-0.271,0.799-0.579,1.139-0.93c1.398-1.397,2.197-3.326,2.197-5.294c0-1.978-0.799-3.905-2.197-5.304
	C324.148,470.058,323.758,469.74,323.349,469.469z"/>
<path d="M266.112,369.222h-26.852c-4.138,0-7.491,3.353-7.491,7.491c0,4.138,3.353,7.491,7.491,7.491h26.852
	c4.137,0,7.491-3.353,7.491-7.491C273.603,372.575,270.249,369.222,266.112,369.222z"/>
<path d="M221.613,373.847c-0.189-0.449-0.419-0.89-0.688-1.288c-0.271-0.41-0.589-0.8-0.929-1.14
	c-0.351-0.35-0.729-0.659-1.14-0.939c-0.41-0.271-0.839-0.499-1.298-0.68c-0.449-0.189-0.919-0.34-1.398-0.429
	c-0.969-0.2-1.958-0.2-2.926,0c-0.478,0.09-0.949,0.24-1.408,0.429c-0.449,0.181-0.879,0.41-1.288,0.68
	c-0.41,0.279-0.789,0.589-1.139,0.939c-0.34,0.34-0.659,0.729-0.929,1.14c-0.271,0.398-0.499,0.839-0.689,1.288
	c-0.189,0.448-0.33,0.929-0.429,1.407c-0.1,0.479-0.15,0.97-0.15,1.458c0,0.489,0.05,0.979,0.15,1.458
	c0.1,0.479,0.24,0.96,0.429,1.408c0.19,0.449,0.419,0.89,0.689,1.288c0.27,0.42,0.589,0.799,0.929,1.14
	c1.398,1.397,3.326,2.196,5.294,2.196c1.978,0,3.905-0.799,5.305-2.196c0.34-0.341,0.658-0.72,0.929-1.14
	c0.27-0.398,0.499-0.839,0.688-1.288c0.191-0.448,0.33-0.929,0.43-1.408c0.1-0.479,0.149-0.969,0.149-1.458
	c0-0.488-0.05-0.979-0.149-1.458C221.943,374.775,221.803,374.295,221.613,373.847z"/>
<path d="M61.483,118.83H48.389c-4.138,0-7.491,3.354-7.491,7.491s3.353,7.491,7.491,7.491h13.093c4.138,0,7.491-3.354,7.491-7.491
	C68.973,122.184,65.62,118.83,61.483,118.83z"/>
<path d="M61.483,154.786H48.389c-4.138,0-7.491,3.354-7.491,7.491s3.353,7.491,7.491,7.491h13.093c4.138,0,7.491-3.354,7.491-7.491
	S65.62,154.786,61.483,154.786z"/>
<path d="M61.483,190.742H48.389c-4.138,0-7.491,3.354-7.491,7.491s3.353,7.491,7.491,7.491h13.093c4.138,0,7.491-3.354,7.491-7.491
	S65.62,190.742,61.483,190.742z"/>
<path d="M256.068,118.331h-9.521c-4.138,0-7.491,3.354-7.491,7.491s3.353,7.491,7.491,7.491h9.521c4.138,0,7.491-3.354,7.491-7.491
	C263.559,121.684,260.205,118.331,256.068,118.331z"/>
<path d="M221.375,118.831h-62.731c-4.138,0-7.491,3.354-7.491,7.491c0,4.137,3.353,7.491,7.491,7.491h62.731
	c4.137,0,7.491-3.354,7.491-7.491C228.866,122.185,225.512,118.831,221.375,118.831z"/>
<path d="M95.317,133.315h35.452c4.138,0,7.491-3.354,7.491-7.491s-3.353-7.491-7.491-7.491H95.317c-4.138,0-7.491,3.354-7.491,7.491
	S91.179,133.315,95.317,133.315z"/>
<path d="M115.712,197.735c0,4.137,3.353,7.491,7.491,7.491h132.864c4.138,0,7.491-3.354,7.491-7.491s-3.353-7.491-7.491-7.491
	H123.203C119.066,190.244,115.712,193.598,115.712,197.735z"/>
<path d="M221.375,169.267c4.137,0,7.491-3.354,7.491-7.491s-3.354-7.491-7.491-7.491h-17.502c-4.138,0-7.491,3.354-7.491,7.491
	s3.353,7.491,7.491,7.491H221.375z"/>
<path d="M95.317,169.27h80.044c4.138,0,7.491-3.354,7.491-7.491s-3.353-7.491-7.491-7.491H95.317c-4.138,0-7.491,3.354-7.491,7.491
	C87.826,165.917,91.179,169.27,95.317,169.27z"/>
<path d="M256.068,154.287h-6.546c-4.138,0-7.491,3.354-7.491,7.491s3.353,7.491,7.491,7.491h6.546c4.138,0,7.491-3.354,7.491-7.491
	S260.205,154.287,256.068,154.287z"/>
<path d="M89.085,201.896c0.28,0.41,0.589,0.789,0.938,1.139c0.341,0.34,0.72,0.659,1.14,0.929c0.399,0.27,0.839,0.499,1.288,0.689
	c0.449,0.19,0.929,0.33,1.397,0.429c0.489,0.09,0.979,0.14,1.469,0.14c0.488,0,0.978-0.05,1.468-0.14
	c0.469-0.1,0.949-0.24,1.398-0.429c0.448-0.19,0.889-0.419,1.288-0.689c0.408-0.27,0.799-0.589,1.139-0.929
	c1.397-1.398,2.197-3.326,2.197-5.304c0-0.489-0.051-0.979-0.15-1.458c-0.09-0.479-0.24-0.949-0.419-1.408
	c-0.19-0.449-0.419-0.889-0.689-1.288c-0.279-0.41-0.589-0.799-0.938-1.139c-0.34-0.35-0.729-0.659-1.139-0.929
	c-0.4-0.27-0.84-0.509-1.288-0.689c-0.449-0.19-0.93-0.33-1.398-0.429c-2.437-0.489-5.024,0.31-6.763,2.048
	c-0.35,0.34-0.658,0.729-0.938,1.139c-0.271,0.4-0.499,0.839-0.689,1.288c-0.18,0.459-0.33,0.929-0.419,1.408
	c-0.1,0.479-0.149,0.969-0.149,1.458c0,0.489,0.05,0.979,0.149,1.468c0.09,0.479,0.24,0.949,0.419,1.398
	C88.585,201.047,88.815,201.486,89.085,201.896z"/>
<path d="M61.483,298.611H48.389c-4.138,0-7.491,3.353-7.491,7.491c0,4.138,3.353,7.491,7.491,7.491h13.093
	c4.138,0,7.491-3.353,7.491-7.491C68.974,301.963,65.62,298.611,61.483,298.611z"/>
<path d="M61.483,262.654H48.389c-4.138,0-7.491,3.353-7.491,7.491c0,4.138,3.353,7.491,7.491,7.491h13.093
	c4.138,0,7.491-3.353,7.491-7.491C68.974,266.007,65.62,262.654,61.483,262.654z"/>
<path d="M61.483,226.698H48.389c-4.138,0-7.491,3.354-7.491,7.491s3.353,7.491,7.491,7.491h13.093c4.138,0,7.491-3.354,7.491-7.491
	S65.62,226.698,61.483,226.698z"/>
<path d="M210.477,299.11h-9.521c-4.138,0-7.491,3.353-7.491,7.491s3.353,7.491,7.491,7.491h9.521c4.138,0,7.491-3.353,7.491-7.491
	S214.615,299.11,210.477,299.11z"/>
<path d="M133.529,299.11c-4.138,0-7.491,3.353-7.491,7.491s3.354,7.491,7.491,7.491h38.26c4.137,0,7.491-3.353,7.491-7.491
	s-3.354-7.491-7.491-7.491H133.529z"/>
<path d="M95.318,314.092h14.305c4.138,0,7.491-3.353,7.491-7.491s-3.353-7.491-7.491-7.491H95.318c-4.138,0-7.491,3.353-7.491,7.491
	C87.827,310.738,91.18,314.092,95.318,314.092z"/>
<path d="M210.477,263.154h-87.273c-4.138,0-7.491,3.353-7.491,7.491c0,4.138,3.353,7.491,7.491,7.491h87.273
	c4.138,0,7.491-3.353,7.491-7.491C217.967,266.507,214.615,263.154,210.477,263.154z"/>
<path d="M239.025,234.692c0-4.137-3.353-7.491-7.491-7.491h-71.975c-4.138,0-7.491,3.354-7.491,7.491s3.353,7.491,7.491,7.491
	h71.975C235.672,242.182,239.025,238.828,239.025,234.692z"/>
<path d="M138.261,234.689c0-4.137-3.353-7.491-7.491-7.491H95.318c-4.138,0-7.491,3.354-7.491,7.491s3.353,7.491,7.491,7.491h35.452
	C134.907,242.179,138.261,238.825,138.261,234.689z"/>
<path d="M258.937,227.764c-0.459-0.18-0.929-0.33-1.407-0.419c-0.97-0.2-1.959-0.2-2.927,0c-0.479,0.09-0.949,0.24-1.397,0.419
	c-0.459,0.19-0.89,0.419-1.299,0.689c-0.409,0.28-0.789,0.589-1.139,0.939c-0.652,0.652-1.198,1.432-1.618,2.427
	c-2.334,5.541,2.626,11.406,8.381,10.208c5.638-1.057,8.195-8.303,3.835-12.635c-0.351-0.35-0.729-0.659-1.14-0.939
	C259.816,228.183,259.387,227.954,258.937,227.764z"/>
<path d="M101.55,266.488c-0.279-0.41-0.589-0.799-0.938-1.14c-0.34-0.35-0.729-0.658-1.139-0.929c-0.4-0.27-0.84-0.509-1.288-0.688
	c-0.449-0.19-0.93-0.33-1.398-0.43c-0.969-0.19-1.968-0.19-2.936,0c-0.469,0.101-0.948,0.24-1.397,0.43
	c-0.449,0.18-0.89,0.419-1.288,0.688c-0.419,0.271-0.799,0.579-1.14,0.929c-0.35,0.341-0.658,0.729-0.938,1.14
	c-0.271,0.398-0.499,0.839-0.689,1.288c-0.18,0.459-0.33,0.929-0.419,1.408c-0.1,0.478-0.149,0.969-0.149,1.458
	c0,0.488,0.05,0.978,0.149,1.468c0.09,0.479,0.24,0.949,0.419,1.398c0.19,0.448,0.419,0.889,0.689,1.287
	c0.28,0.42,0.589,0.8,0.938,1.14c0.341,0.35,0.72,0.659,1.14,0.938c0.399,0.271,0.839,0.499,1.288,0.689
	c0.449,0.18,0.929,0.33,1.397,0.42c0.489,0.1,0.979,0.15,1.469,0.15c0.488,0,0.978-0.051,1.468-0.15
	c0.469-0.09,0.949-0.24,1.398-0.42c0.448-0.19,0.889-0.419,1.288-0.689c0.409-0.279,0.799-0.589,1.139-0.938
	c0.35-0.34,0.659-0.719,0.938-1.14c0.271-0.398,0.499-0.839,0.689-1.287c0.18-0.449,0.33-0.92,0.419-1.398
	c0.1-0.489,0.15-0.979,0.15-1.468c0-0.489-0.051-0.979-0.15-1.458c-0.09-0.479-0.24-0.949-0.419-1.408
	C102.049,267.326,101.819,266.886,101.55,266.488z"/>
<g>
</g>
<g>
</g>
<g>
</g>
<g>
</g>
<g>
</g>
<g>
</g>
<g>
</g>
<g>
</g>
<g>
</g>
<g>
</g>
<g>
</g>
<g>
</g>
<g>
</g>
<g>
</g>
<g>
</g>
</svg>
