<?xml version="1.0" encoding="iso-8859-1"?>
<!-- Generator: Adobe Illustrator 19.0.0, SVG Export Plug-In . SVG Version: 6.00 Build 0)  -->
<svg version="1.1" id="Capa_1" xmlns="http://www.w3.org/2000/svg" xmlns:xlink="http://www.w3.org/1999/xlink" x="0px" y="0px"
	 viewBox="0 0 512 512" style="enable-background:new 0 0 512 512;" xml:space="preserve">
<path style="fill:#EFC9AE;" d="M174.545,69.818c0-19.782-15.127-34.909-34.909-34.909s-34.909,15.127-34.909,34.909v23.273
	c0,19.782,15.127,34.909,34.909,34.909s34.909-15.127,34.909-34.909V69.818z"/>
<path style="fill:#014463;" d="M139.636,151.273c-32.582,0-58.182-25.6-58.182-58.182V69.818c0-32.582,25.6-58.182,58.182-58.182
	s58.182,25.6,58.182,58.182v23.273C197.818,125.673,172.218,151.273,139.636,151.273z M139.636,34.909
	c-19.782,0-34.909,15.127-34.909,34.909v23.273c0,19.782,15.127,34.909,34.909,34.909s34.909-15.127,34.909-34.909V69.818
	C174.545,50.036,159.418,34.909,139.636,34.909z"/>
<path style="fill:#70B7E5;" d="M69.818,216.436v62.836c0,6.982,4.655,11.636,11.636,11.636h116.364
	c6.982,0,11.636-4.655,11.636-11.636v-62.836c0-5.818-3.491-10.473-9.309-11.636l-16.291-3.491
	c-15.127-2.327-29.091-3.491-44.218-3.491s-29.091,1.164-44.218,4.655l-16.291,3.491C73.309,207.127,69.818,211.782,69.818,216.436z
	"/>
<path style="fill:#014463;" d="M197.818,314.182H81.455c-19.782,0-34.909-15.127-34.909-34.909v-62.836
	c0-16.291,11.636-31.418,27.927-33.745l16.291-3.491c31.418-5.818,65.164-5.818,96.582,0l16.291,3.491
	c17.455,3.491,29.091,17.455,29.091,33.745v62.836C232.727,299.055,217.6,314.182,197.818,314.182z M139.636,197.818
	c-15.127,0-29.091,1.164-44.218,4.655l-16.291,3.491c-5.818,1.164-9.309,5.818-9.309,11.636v61.673
	c0,6.982,4.655,11.636,11.636,11.636h116.364c6.982,0,11.636-4.655,11.636-11.636v-62.836c0-5.818-3.491-10.473-9.309-11.636
	l-16.291-3.491C168.727,198.982,154.764,197.818,139.636,197.818z"/>
<path style="fill:#4C9CD6;" d="M200.145,205.964h-2.327v38.4c0,12.8-10.473,23.273-23.273,23.273H69.818v11.636
	c0,6.982,4.655,11.636,11.636,11.636h116.364c6.982,0,11.636-4.655,11.636-11.636v-62.836
	C209.455,211.782,205.964,207.127,200.145,205.964z"/>
<path style="fill:#D98B37;" d="M139.636,51.2c13.964,0,29.091,1.164,43.055,3.491c-6.982-18.618-23.273-31.418-43.055-31.418
	s-36.073,12.8-43.055,31.418C110.545,52.364,125.673,51.2,139.636,51.2z"/>
<path style="fill:#014463;" d="M197.818,81.455c-1.164,0-2.327,0-2.327,0c-36.073-9.309-74.473-9.309-110.545,0
	c-4.655,0-8.145,0-10.473-2.327c-3.491-2.327-4.655-6.982-4.655-10.473C73.309,29.091,102.4,0,139.636,0
	s66.327,29.091,69.818,68.655c0,3.491-1.164,6.982-4.655,9.309C203.636,80.291,200.145,81.455,197.818,81.455z M139.636,51.2
	c13.964,0,29.091,1.164,43.055,3.491c-6.982-18.618-23.273-31.418-43.055-31.418s-36.073,12.8-43.055,31.418
	C110.545,52.364,125.673,51.2,139.636,51.2z"/>
<path style="fill:#C87629;" d="M166.4,52.364c5.818,1.164,10.473,1.164,16.291,2.327c-6.982-18.618-23.273-31.418-43.055-31.418
	c-2.327,0-4.655,0-8.145,1.164C147.782,26.764,159.418,37.236,166.4,52.364z"/>
<path style="fill:#EFC9AE;" d="M407.273,267.636c0-19.782-15.127-34.909-34.909-34.909s-34.909,15.127-34.909,34.909v23.273
	c0,19.782,15.127,34.909,34.909,34.909s34.909-15.127,34.909-34.909V267.636z"/>
<path style="fill:#014463;" d="M372.364,349.091c-32.582,0-58.182-25.6-58.182-58.182v-23.273c0-32.582,25.6-58.182,58.182-58.182
	s58.182,25.6,58.182,58.182v23.273C430.545,323.491,404.945,349.091,372.364,349.091z M372.364,232.727
	c-19.782,0-34.909,15.127-34.909,34.909v23.273c0,19.782,15.127,34.909,34.909,34.909s34.909-15.127,34.909-34.909v-23.273
	C407.273,247.855,392.145,232.727,372.364,232.727z"/>
<path style="fill:#90C962;" d="M302.545,414.255v62.836c0,6.982,4.655,11.636,11.636,11.636h116.364
	c6.982,0,11.636-4.655,11.636-11.636v-62.836c0-5.818-3.491-10.473-9.309-11.636l-16.291-3.491
	c-15.127-2.327-29.091-3.491-44.218-3.491s-29.091,1.164-44.218,4.655l-16.291,3.491C306.036,404.945,302.545,409.6,302.545,414.255
	z"/>
<path style="fill:#014463;" d="M430.545,512H314.182c-19.782,0-34.909-15.127-34.909-34.909v-62.836
	c0-16.291,11.636-31.418,27.927-33.745l16.291-3.491c31.418-5.818,65.164-5.818,96.582,0l16.291,3.491
	c17.455,3.491,29.091,17.455,29.091,33.745v62.836C465.455,496.873,450.327,512,430.545,512z M372.364,395.636
	c-15.127,0-29.091,1.164-44.218,4.655l-16.291,3.491c-5.818,1.164-9.309,5.818-9.309,11.636v61.673
	c0,6.982,4.655,11.636,11.636,11.636h116.364c6.982,0,11.636-4.655,11.636-11.636v-62.836c0-5.818-3.491-10.473-9.309-11.636
	l-16.291-3.491C401.455,396.8,387.491,395.636,372.364,395.636z"/>
<path style="fill:#71B956;" d="M432.873,403.782h-2.327v38.4c0,12.8-10.473,23.273-23.273,23.273H302.545v11.636
	c0,6.982,4.655,11.636,11.636,11.636h116.364c6.982,0,11.636-4.655,11.636-11.636v-62.836
	C442.182,409.6,438.691,404.945,432.873,403.782z"/>
<g>
	<path style="fill:#E2B698;" d="M395.636,273.455L395.636,273.455c-8.145-1.164-15.127-1.164-23.273-1.164
		c-11.636,0-23.273,1.164-34.909,2.327v11.636c15.127-2.327,31.418-3.491,46.545-2.327c5.818,0,9.309,6.982,6.982,11.636
		c-5.818,11.636-17.455,18.618-30.255,18.618c-6.982,0-12.8-2.327-18.618-4.655c6.982,11.636,20.945,19.782,37.236,16.291
		c16.291-3.491,27.927-18.618,27.927-34.909v-3.491v-11.636C403.782,274.618,399.127,273.455,395.636,273.455z"/>
	<path style="fill:#E2B698;" d="M162.909,75.636L162.909,75.636c-8.145-1.164-15.127-1.164-23.273-1.164
		c-11.636,0-23.273,1.164-34.909,2.327v11.636c15.127-2.327,31.418-3.491,46.545-2.327c5.818,0,9.309,6.982,6.982,11.636
		c-5.818,11.636-17.455,18.618-30.255,18.618c-6.982,0-12.8-2.327-18.618-4.655c6.982,11.636,20.945,19.782,37.236,16.291
		c16.291-3.491,27.927-18.618,27.927-34.909V89.6V77.964C171.055,76.8,166.4,75.636,162.909,75.636z"/>
</g>
<path style="fill:#D98B37;" d="M372.364,249.018c13.964,0,29.091,1.164,43.055,3.491c-6.982-18.618-23.273-31.418-43.055-31.418
	s-36.073,12.8-43.055,31.418C343.273,250.182,358.4,249.018,372.364,249.018z"/>
<path style="fill:#014463;" d="M430.545,279.273c-1.164,0-2.327,0-2.327,0c-18.618-4.655-37.236-6.982-55.855-6.982
	c-18.618,0-37.236,2.327-55.855,6.982c-3.491,1.164-6.982,0-10.473-2.327c-2.327-2.327-4.655-5.818-4.655-9.309
	c3.491-39.564,32.582-68.655,69.818-68.655s66.327,29.091,69.818,68.655c0,3.491-1.164,6.982-4.655,9.309
	C436.364,278.109,432.873,279.273,430.545,279.273z M372.364,249.018c13.964,0,29.091,1.164,43.055,3.491
	c-6.982-18.618-23.273-31.418-43.055-31.418s-36.073,12.8-43.055,31.418C343.273,250.182,358.4,249.018,372.364,249.018z"/>
<path style="fill:#C87629;" d="M399.127,250.182c5.818,1.164,10.473,1.164,16.291,2.327c-6.982-18.618-23.273-31.418-43.055-31.418
	c-2.327,0-4.655,0-8.145,1.164C380.509,224.582,392.145,235.055,399.127,250.182z"/>
<path style="fill:#ECEFF9;" d="M58.182,488.727h139.636c6.982,0,11.636-4.655,11.636-11.636V365.382l-16.291,16.291
	c-8.145,8.145-20.945,13.964-32.582,13.964h-102.4c-6.982,0-11.636,4.655-11.636,11.636v69.818
	C46.545,484.073,51.2,488.727,58.182,488.727z"/>
<g>
	<path style="fill:#014463;" d="M197.818,512H58.182c-19.782,0-34.909-15.127-34.909-34.909v-69.818
		c0-19.782,15.127-34.909,34.909-34.909h102.4c5.818,0,11.636-2.327,16.291-6.982l0,0l36.073-36.073
		c3.491-3.491,8.145-4.655,12.8-2.327s6.982,5.818,6.982,10.473v139.636C232.727,496.873,217.6,512,197.818,512z M58.182,395.636
		c-6.982,0-11.636,4.655-11.636,11.636v69.818c0,6.982,4.655,11.636,11.636,11.636h139.636c6.982,0,11.636-4.655,11.636-11.636
		V365.382l-16.291,16.291c-8.145,8.145-20.945,13.964-32.582,13.964H58.182z"/>
	<path style="fill:#014463;" d="M314.182,0h139.636c19.782,0,34.909,15.127,34.909,34.909v69.818
		c0,19.782-15.127,34.909-34.909,34.909h-102.4c-5.818,0-11.636,2.327-16.291,6.982l0,0l-36.073,36.073
		c-3.491,3.491-8.145,4.655-12.8,2.327c-4.655-1.164-6.982-5.818-6.982-10.473V34.909C279.273,15.127,294.4,0,314.182,0z
		 M453.818,116.364c6.982,0,11.636-4.655,11.636-11.636V34.909c0-6.982-4.655-11.636-11.636-11.636H314.182
		c-6.982,0-11.636,4.655-11.636,11.636v111.709l16.291-16.291c8.145-8.145,20.945-13.964,32.582-13.964L453.818,116.364
		L453.818,116.364z"/>
</g>
<path style="fill:#ECEFF9;" d="M351.418,116.364h102.4c6.982,0,11.636-4.655,11.636-11.636V34.909
	c0-6.982-4.655-11.636-11.636-11.636H314.182c-6.982,0-11.636,4.655-11.636,11.636v111.709l16.291-16.291
	C328.145,121.018,339.782,116.364,351.418,116.364z"/>
<g>
	<circle style="fill:#014463;" cx="337.455" cy="69.818" r="11.636"/>
	<circle style="fill:#014463;" cx="384" cy="69.818" r="11.636"/>
	<circle style="fill:#014463;" cx="430.545" cy="69.818" r="11.636"/>
	<circle style="fill:#014463;" cx="81.455" cy="442.182" r="11.636"/>
	<circle style="fill:#014463;" cx="128" cy="442.182" r="11.636"/>
	<circle style="fill:#014463;" cx="174.545" cy="442.182" r="11.636"/>
</g>
<g>
</g>
<g>
</g>
<g>
</g>
<g>
</g>
<g>
</g>
<g>
</g>
<g>
</g>
<g>
</g>
<g>
</g>
<g>
</g>
<g>
</g>
<g>
</g>
<g>
</g>
<g>
</g>
<g>
</g>
</svg>
